<?xml version="1.0" standalone="no"?>
<!DOCTYPE svg PUBLIC "-//W3C//DTD SVG 20010904//EN"
 "http://www.w3.org/TR/2001/REC-SVG-20010904/DTD/svg10.dtd">
<svg version="1.0" xmlns="http://www.w3.org/2000/svg"
 width="258.000000pt" height="930.000000pt" viewBox="0 0 258.000000 930.000000"
 preserveAspectRatio="xMidYMid meet">
<metadata>
Created by potrace 1.16, written by Peter Selinger 2001-2019
</metadata>
<g transform="translate(0.000000,930.000000) scale(0.100000,-0.100000)"
fill="#000000" stroke="none">
<path d="M817 9284 c-1 -1 -100 -4 -219 -7 -119 -3 -221 -8 -226 -11 -5 -3
-28 -7 -49 -9 -22 -2 -45 -7 -52 -11 -6 -4 -15 -4 -21 -1 -5 3 -10 1 -10 -5 0
-6 -5 -8 -10 -5 -6 3 -10 1 -10 -5 0 -6 -5 -8 -10 -5 -6 3 -10 1 -10 -5 0 -6
-5 -8 -10 -5 -6 3 -13 -1 -16 -9 -3 -9 -10 -14 -14 -11 -11 7 -88 -79 -100
-111 -6 -14 -7 -30 -4 -36 4 -7 2 -8 -4 -4 -15 9 -33 -59 -27 -109 4 -32 3
-35 -4 -15 -5 15 -8 -677 -8 -1670 2 -1374 3 -1540 8 -880 5 650 5 552 4 -480
-2 -712 1 -1279 5 -1260 5 22 6 -1 4 -60 -3 -67 -1 -88 6 -70 7 19 8 11 4 -30
-4 -41 -2 -51 6 -40 8 12 9 9 4 -13 -8 -34 4 -100 16 -92 6 4 7 -7 3 -26 -5
-25 -3 -30 7 -24 10 6 12 4 7 -9 -8 -21 2 -68 13 -61 5 3 6 -5 2 -17 -4 -16
-2 -19 8 -13 9 5 11 4 6 -4 -10 -16 13 -83 26 -75 7 4 8 2 4 -4 -10 -16 43
-124 56 -116 7 4 8 2 4 -5 -10 -15 33 -83 46 -75 7 4 8 2 4 -4 -4 -6 10 -35
30 -64 38 -54 64 -85 49 -59 -5 10 -4 12 4 7 6 -4 9 -11 6 -16 -7 -12 60 -141
69 -133 4 4 4 -1 0 -11 -5 -13 -4 -17 3 -13 7 5 9 -1 5 -15 -3 -13 -1 -19 5
-15 7 5 9 -1 5 -15 -3 -13 -1 -19 5 -15 7 5 9 -1 5 -15 -4 -16 -2 -19 8 -13 9
5 11 4 6 -4 -9 -14 3 -73 13 -66 5 2 6 -7 3 -22 -3 -18 -1 -24 6 -19 8 5 10
-3 6 -26 -4 -24 -3 -29 4 -19 8 11 9 2 6 -30 -4 -30 -3 -40 4 -30 7 9 9 -2 6
-35 -3 -31 -1 -42 4 -30 5 10 7 -23 6 -80 -2 -64 0 -83 4 -54 4 26 7 -25 8
-120 0 -91 -3 -151 -7 -135 -4 17 -6 -40 -5 -125 1 -85 6 -164 11 -174 5 -12
5 -17 -1 -14 -5 4 -5 -41 0 -114 5 -71 12 -114 17 -106 6 9 9 3 9 -17 0 -19
-3 -25 -9 -17 -10 17 -1 -98 10 -120 11 -21 11 -31 1 -24 -4 2 -6 -14 -3 -37
3 -33 5 -38 12 -22 7 17 8 16 8 -8 1 -16 -2 -26 -6 -24 -5 3 -6 -16 -4 -41 3
-35 6 -42 11 -27 4 11 6 -11 4 -50 -3 -48 -1 -64 5 -50 6 14 8 1 4 -40 -3 -43
-2 -56 6 -45 7 10 9 -2 5 -45 -3 -43 -2 -54 5 -40 7 14 9 3 5 -40 -3 -43 -2
-54 5 -40 7 14 8 6 4 -29 -4 -28 -2 -47 3 -44 5 4 8 -14 6 -40 -2 -33 0 -43 7
-33 7 11 8 2 5 -30 -4 -31 -3 -40 5 -30 7 11 8 2 5 -30 -4 -32 -3 -40 5 -29 8
11 9 5 5 -25 -4 -30 -3 -36 5 -25 8 11 9 7 4 -19 -4 -21 -2 -32 4 -28 5 4 8
-6 5 -25 -3 -19 -1 -28 5 -25 6 4 8 -4 5 -20 -3 -16 -1 -24 5 -20 6 4 8 -4 5
-20 -3 -16 -1 -24 5 -20 6 4 8 -4 5 -20 -3 -18 -1 -24 6 -19 8 5 10 -3 6 -26
-4 -25 -3 -29 5 -18 8 11 9 7 4 -19 -4 -21 -2 -32 4 -28 5 4 8 -6 5 -25 -3
-18 -1 -28 5 -25 5 4 8 -7 5 -25 -3 -17 -1 -28 4 -25 5 3 8 -11 6 -31 -2 -21
1 -56 6 -80 6 -25 6 -44 1 -48 -5 -3 -7 -9 -4 -14 3 -4 -2 -11 -11 -14 -10 -4
-13 -2 -8 7 3 6 -4 1 -17 -13 -13 -14 -19 -19 -14 -10 9 13 8 13 -7 2 -33 -26
-40 -73 -23 -151 11 -45 21 -69 27 -65 6 4 8 2 5 -3 -9 -14 3 -74 13 -68 5 3
6 -5 2 -17 -4 -16 -2 -19 8 -13 9 5 11 4 6 -4 -11 -17 2 -63 15 -55 8 4 8 0 0
-14 -6 -12 -16 -24 -23 -28 -7 -5 -9 -2 -4 7 4 8 -2 3 -13 -11 -11 -14 -19
-31 -16 -37 2 -7 0 -13 -5 -13 -6 0 -10 -21 -10 -46 0 -27 4 -43 10 -39 6 3 7
-1 4 -10 -4 -9 2 -25 12 -37 31 -34 74 -47 144 -42 44 2 57 1 40 -5 -15 -5 49
-7 160 -6 126 2 158 0 100 -4 -61 -5 -24 -7 130 -7 157 0 191 2 125 7 -63 4
-32 6 105 5 107 -1 182 1 165 6 -20 5 -6 6 39 4 44 -3 64 -1 55 5 -10 6 -3 9
21 7 39 -2 64 8 55 23 -4 5 0 9 7 9 18 0 37 32 43 77 6 41 -23 110 -44 105 -6
-1 -11 2 -11 8 0 5 -7 10 -14 10 -12 0 -11 10 5 58 30 85 69 240 69 272 0 31
-46 94 -61 84 -5 -3 -9 0 -9 6 0 6 -4 9 -9 6 -16 -10 -18 53 -5 142 13 91 19
123 59 287 97 398 172 1140 179 1765 1 173 6 333 10 355 17 104 30 158 63 255
20 58 45 121 56 140 10 19 29 53 40 75 12 22 25 42 28 45 12 11 99 138 99 145
0 4 9 19 19 34 27 38 87 184 110 272 21 77 47 217 56 304 12 104 5 4373 -6
4426 -6 28 -19 70 -30 93 -19 43 -67 113 -74 109 -3 -2 -14 6 -25 17 -11 11
-27 20 -35 20 -8 0 -15 5 -15 12 0 6 -3 8 -7 5 -3 -4 -12 -2 -20 4 -7 6 -13 9
-13 5 0 -3 -12 -1 -27 5 -28 11 -54 17 -108 26 -26 4 -1354 20 -1358 17z
m1228 -327 c156 -46 272 -131 316 -230 31 -71 37 -193 14 -272 -31 -108 -96
-179 -217 -235 -140 -65 -121 -64 -1098 -65 l-885 0 -3 148 -3 147 951 0 950
0 0 120 0 120 -950 0 -950 0 0 145 0 146 908 -3 c832 -3 912 -5 967 -21z m345
-1055 l0 -148 -337 -78 c-186 -43 -369 -85 -406 -94 l-68 -16 3 -36 3 -35 403
-3 402 -2 0 -145 0 -145 -1111 0 -1110 0 3 258 c3 246 4 259 27 310 31 69 113
144 188 172 113 42 145 45 488 44 276 0 341 -3 400 -17 92 -23 187 -70 220
-109 l26 -31 412 110 c227 61 422 111 435 112 22 1 22 0 22 -147z m-1318 -883
c74 -16 152 -54 182 -90 l25 -30 40 40 c21 21 65 49 97 62 57 23 67 24 354 24
258 0 302 -2 355 -18 89 -28 147 -61 189 -107 69 -77 71 -83 74 -397 l3 -283
-1111 0 -1111 0 4 278 c4 309 7 326 70 398 55 62 162 112 272 127 72 10 508 6
557 -4z m1318 -1279 c0 -113 -3 -150 -12 -150 -7 0 -119 -14 -248 -30 -129
-16 -236 -30 -237 -30 -2 0 -3 -60 -3 -134 l0 -134 28 -6 c15 -3 127 -17 250
-32 l222 -27 0 -419 0 -418 -1110 0 -1110 0 0 145 0 145 953 2 952 3 3 143 c2
110 0 142 -10 142 -7 1 -436 54 -953 119 l-940 118 -3 216 -2 216 32 6 c28 5
2140 271 2176 274 9 1 12 -35 12 -149z"/>
<path d="M482 7593 l3 -98 390 0 390 0 3 98 3 97 -396 0 -396 0 3 -97z"/>
<path d="M490 6625 l0 -115 315 0 315 0 0 115 0 115 -315 0 -315 0 0 -115z"/>
<path d="M1440 6625 l0 -115 315 0 315 0 0 115 0 115 -315 0 -315 0 0 -115z"/>
<path d="M1280 5455 c-140 -18 -299 -39 -353 -45 -54 -7 -96 -14 -95 -16 4 -3
715 -94 738 -94 8 0 10 29 8 95 -2 88 -4 95 -23 94 -11 -1 -135 -16 -275 -34z"/>
</g>
</svg>
