<svg version="1.1" id="Layer_1" xmlns="http://www.w3.org/2000/svg" xmlns:xlink="http://www.w3.org/1999/xlink" x="0px" y="0px"
	 width="100%" viewBox="0 0 258 930" enable-background="new 0 0 258 930" xml:space="preserve">
<path fill="#010100" opacity="1.000000" stroke="none" 
	d="
M84.000000,1.000000 
	C142.322830,1.000000 200.645676,1.000000 258.984253,1.000000 
	C258.984253,310.933685 258.984253,620.867371 258.984253,930.900513 
	C173.081879,930.900513 87.163620,930.900513 1.122674,930.900513 
	C1.122674,621.000061 1.122674,311.000031 1.122674,1.000000 
	C27.748850,1.000000 54.410542,1.000000 81.573654,1.391882 
	C80.606689,2.173509 79.146492,2.860501 77.668503,2.901210 
	C71.482811,3.071586 65.291786,3.048128 58.704369,3.073101 
	C50.781330,3.660065 43.266006,4.447971 35.730087,4.843749 
	C17.469007,5.802798 4.758111,18.653700 2.878457,36.364712 
	C2.699765,92.215874 2.694160,147.617432 2.702591,203.018997 
	C2.702742,204.009338 2.870992,204.999649 2.881542,206.453949 
	C2.856325,230.942581 2.910372,254.967255 2.880043,279.454712 
	C2.763734,312.558960 2.714592,345.200470 2.755428,377.841827 
	C2.757287,379.328339 3.570440,380.813904 3.936969,382.387909 
	C3.868213,382.475922 3.896074,382.697510 3.867577,383.196106 
	C3.837789,390.468994 3.836498,397.243286 3.634885,404.370911 
	C3.593975,409.472046 3.753388,414.219849 3.860646,419.436523 
	C3.759735,434.955109 3.710980,450.004822 3.474925,465.394043 
	C3.218047,467.222595 2.866097,468.762390 3.123186,470.192688 
	C5.348348,482.572418 7.707567,494.928009 9.978629,507.299591 
	C12.522626,521.157959 19.051416,533.330566 27.202013,544.413086 
	C39.028530,560.493896 46.458717,578.193115 49.973244,597.689392 
	C50.814156,602.354187 52.091934,607.031433 52.183895,611.722229 
	C52.420231,623.777405 51.882450,635.847168 52.082222,647.903992 
	C52.229107,656.769287 53.191570,665.618225 53.516087,674.484558 
	C53.681747,679.010498 52.770245,683.600098 53.163010,688.089355 
	C54.616421,704.701721 56.333721,721.292419 58.098793,737.875732 
	C59.699577,752.915527 61.111149,767.991394 63.325542,782.944824 
	C64.962143,793.996582 67.811798,804.865662 70.016800,815.837036 
	C72.393028,827.660583 74.759781,839.488464 76.883308,851.358704 
	C77.474060,854.661011 77.436424,857.884216 73.058746,859.536926 
	C69.317612,860.949280 66.685997,867.520203 67.705803,871.366577 
	C70.316635,881.213928 73.069672,891.023560 75.699638,900.607056 
	C74.292671,901.698242 72.769234,902.529663 71.712166,903.761414 
	C67.588104,908.567017 68.278320,914.143433 70.435684,919.270081 
	C72.873528,925.063110 79.222008,925.198547 84.084274,925.609070 
	C94.340599,926.475281 104.713020,925.966736 115.246849,926.399658 
	C126.284370,926.828979 137.112839,926.880920 148.398010,926.950928 
	C159.071808,926.199219 169.308853,925.624207 179.498215,924.582764 
	C185.139221,924.006226 189.232468,919.446777 190.448761,913.294495 
	C191.486481,908.045410 189.283188,904.550232 184.624512,902.021667 
	C183.571121,901.449951 182.832092,898.778564 183.185577,897.388184 
	C185.100769,889.854919 187.689972,882.488220 189.485168,874.930725 
	C190.960266,868.720764 190.933701,862.772644 183.911575,859.086975 
	C182.402634,858.294983 181.289307,855.142395 181.409149,853.162903 
	C181.736572,847.754517 182.565659,842.340027 183.653214,837.021423 
	C186.334869,823.907166 189.635651,810.910645 192.006851,797.744202 
	C194.461182,784.115967 196.308487,770.368164 198.058716,756.626465 
	C199.642517,744.191467 200.811111,731.701355 202.022293,719.221863 
	C202.852127,710.671814 203.476059,702.101074 204.130020,693.534790 
	C205.219284,679.266479 207.445419,665.038574 205.762253,650.223022 
	C205.782562,638.616089 205.777405,627.450867 205.851654,615.843262 
	C207.482300,600.680908 210.207520,586.208191 215.331070,571.976257 
	C216.739929,569.170654 217.852020,566.567017 218.991852,563.800293 
	C219.019592,563.637268 218.984421,563.308472 219.239624,563.148926 
	C219.651947,562.637939 219.809067,562.286438 219.991699,561.774536 
	C220.017197,561.614014 219.984863,561.290588 220.289368,561.102173 
	C221.414444,559.277649 222.235001,557.641541 223.026581,556.000854 
	C222.997604,555.996155 223.009750,556.053650 223.285492,555.989929 
	C223.711288,555.598938 223.861328,555.271729 224.033722,554.795288 
	C224.056091,554.646179 223.999176,554.350037 224.277176,554.166687 
	C225.041000,553.280396 225.526810,552.577515 226.033218,551.745911 
	C226.053802,551.617249 225.990204,551.364563 226.272491,551.155884 
	C227.056870,549.958191 227.558945,548.969116 228.019836,547.979614 
	C227.978638,547.979248 227.975739,548.061584 228.226944,547.967834 
	C228.669769,547.582397 228.861389,547.290649 229.024872,546.999878 
	C228.996719,547.000793 229.025177,547.049316 229.322388,546.902527 
	C229.673584,545.890503 229.727600,545.025208 230.098129,543.994995 
	C231.866058,542.043823 233.562119,540.403931 234.731079,538.448853 
	C246.750137,518.347229 253.687622,496.712585 254.422211,472.834717 
	C254.735748,452.387634 254.768158,432.267609 254.850891,411.672272 
	C254.941391,404.496063 254.981552,397.795166 255.383255,390.847412 
	C255.838654,389.946259 256.014374,389.292023 256.014618,388.637726 
	C256.030212,344.918030 256.039673,301.198334 255.991898,257.478699 
	C255.990601,256.284515 255.359863,255.091080 255.000061,253.435532 
	C254.993652,228.379669 255.009857,203.785583 255.373108,178.923721 
	C255.506958,174.404602 255.293762,170.153229 255.033249,165.441406 
	C254.971130,162.164383 254.947342,159.347839 254.942963,156.531250 
	C254.906326,133.006058 254.873276,109.480858 254.877487,85.491592 
	C254.905563,70.362373 254.895309,55.697231 254.927673,40.687424 
	C254.684631,39.512104 254.398926,38.681458 254.082413,37.445381 
	C253.034058,28.458605 250.419617,20.146803 243.801010,14.621727 
	C232.999542,5.604896 219.284363,4.360039 205.872452,3.119697 
	C202.653442,2.821999 199.328888,3.665365 195.787704,3.645092 
	C193.537231,3.197427 191.551941,2.994435 189.566605,2.993852 
	C156.111649,2.984024 122.656616,3.029433 89.202026,2.923605 
	C87.466011,2.918114 85.733917,1.669734 84.000000,1.000000 
z"/>
<path fill="#6E543A" opacity="1.000000" stroke="none" 
	d="
M83.666672,1.000000 
	C85.733917,1.669734 87.466011,2.918114 89.202026,2.923605 
	C122.656616,3.029433 156.111649,2.984024 189.566605,2.993852 
	C191.551941,2.994435 193.537231,3.197427 195.315231,3.663542 
	C151.519791,4.022048 107.931633,4.033998 64.343559,3.985181 
	C62.596279,3.983224 60.849651,3.405273 59.102718,3.095693 
	C65.291786,3.048128 71.482811,3.071586 77.668503,2.901210 
	C79.146492,2.860501 80.606689,2.173509 82.037537,1.391882 
	C82.444443,1.000000 82.888893,1.000000 83.666672,1.000000 
z"/>
<path fill="#2F2D32" opacity="1.000000" stroke="none" 
	d="
M58.704369,3.073101 
	C60.849651,3.405273 62.596279,3.983224 64.343559,3.985181 
	C107.931633,4.033998 151.519791,4.022048 195.580399,4.002405 
	C199.328888,3.665365 202.653442,2.821999 205.872452,3.119697 
	C219.284363,4.360039 232.999542,5.604896 243.801010,14.621727 
	C250.419617,20.146803 253.034058,28.458605 253.831116,37.698723 
	C253.461868,39.274372 253.313141,40.191254 253.153427,41.569695 
	C253.195679,56.633434 253.248901,71.235611 253.236267,86.312386 
	C253.486359,113.237679 253.802338,139.688370 254.081039,166.587906 
	C254.371201,171.088318 254.698624,175.139908 255.026062,179.191483 
	C255.009857,203.785583 254.993652,228.379669 254.763031,253.781036 
	C254.431900,255.573685 254.213287,256.559052 254.213181,257.544434 
	C254.208191,300.619568 254.214874,343.694672 254.267563,386.769775 
	C254.269318,388.211578 254.759308,389.652802 255.021698,391.094299 
	C254.981552,397.795166 254.941391,404.496063 254.642456,411.964294 
	C253.927109,415.143036 253.094009,417.551514 253.074921,419.966370 
	C252.948456,435.976776 252.961487,451.988770 253.038467,467.999695 
	C253.046738,469.722107 253.756622,471.441193 254.141052,473.161804 
	C253.687622,496.712585 246.750137,518.347229 234.731079,538.448853 
	C233.562119,540.403931 231.866058,542.043823 229.946320,544.258789 
	C229.327026,545.474854 229.176102,546.262085 229.025177,547.049316 
	C229.025177,547.049316 228.996719,547.000793 228.767120,547.080566 
	C228.350250,547.460815 228.162994,547.761169 227.975739,548.061584 
	C227.975739,548.061584 227.978638,547.979248 227.680389,548.110718 
	C226.918152,549.282959 226.454178,550.323730 225.990204,551.364563 
	C225.990204,551.364563 226.053802,551.617249 225.664566,551.785400 
	C224.849945,552.752319 224.424561,553.551208 223.999176,554.350037 
	C223.999176,554.350037 224.056091,554.646179 223.751282,554.855408 
	C223.300888,555.394287 223.155319,555.723999 223.009766,556.053650 
	C223.009750,556.053650 222.997604,555.996155 222.673126,556.068542 
	C221.560715,557.857483 220.772781,559.574036 219.984863,561.290588 
	C219.984863,561.290588 220.017197,561.614014 219.721725,561.909790 
	C219.278976,562.573181 219.131699,562.940796 218.984421,563.308472 
	C218.984421,563.308472 219.019592,563.637268 218.653748,563.858887 
	C217.203369,566.779663 216.118835,569.478943 215.034302,572.178162 
	C210.207520,586.208191 207.482300,600.680908 205.655365,616.132202 
	C205.498703,628.130676 205.617737,639.397766 205.736771,650.664795 
	C207.445419,665.038574 205.219284,679.266479 204.130020,693.534790 
	C203.476059,702.101074 202.852127,710.671814 202.022293,719.221863 
	C200.811111,731.701355 199.642517,744.191467 198.058716,756.626465 
	C196.308487,770.368164 194.461182,784.115967 192.006851,797.744202 
	C189.635651,810.910645 186.334869,823.907166 183.653214,837.021423 
	C182.565659,842.340027 181.736572,847.754517 181.409149,853.162903 
	C181.289307,855.142395 182.402634,858.294983 183.911575,859.086975 
	C190.933701,862.772644 190.960266,868.720764 189.485168,874.930725 
	C187.689972,882.488220 185.100769,889.854919 183.185577,897.388184 
	C182.832092,898.778564 183.571121,901.449951 184.624512,902.021667 
	C189.283188,904.550232 191.486481,908.045410 190.448761,913.294495 
	C189.232468,919.446777 185.139221,924.006226 179.498215,924.582764 
	C169.308853,925.624207 159.071808,926.199219 148.162277,926.597229 
	C136.659180,926.157776 125.848488,926.090027 115.037804,926.022278 
	C104.713020,925.966736 94.340599,926.475281 84.084274,925.609070 
	C79.222008,925.198547 72.873528,925.063110 70.435684,919.270081 
	C68.278320,914.143433 67.588104,908.567017 71.712166,903.761414 
	C72.769234,902.529663 74.292671,901.698242 75.699638,900.607056 
	C73.069672,891.023560 70.316635,881.213928 67.705803,871.366577 
	C66.685997,867.520203 69.317612,860.949280 73.058746,859.536926 
	C77.436424,857.884216 77.474060,854.661011 76.883308,851.358704 
	C74.759781,839.488464 72.393028,827.660583 70.016800,815.837036 
	C67.811798,804.865662 64.962143,793.996582 63.325542,782.944824 
	C61.111149,767.991394 59.699577,752.915527 58.098793,737.875732 
	C56.333721,721.292419 54.616421,704.701721 53.163010,688.089355 
	C52.770245,683.600098 53.681747,679.010498 53.516087,674.484558 
	C53.191570,665.618225 52.229107,656.769287 52.082222,647.903992 
	C51.882450,635.847168 52.420231,623.777405 52.183895,611.722229 
	C52.091934,607.031433 50.814156,602.354187 49.973244,597.689392 
	C46.458717,578.193115 39.028530,560.493896 27.202013,544.413086 
	C19.051416,533.330566 12.522626,521.157959 9.978629,507.299591 
	C7.707567,494.928009 5.348348,482.572418 3.123186,470.192688 
	C2.866097,468.762390 3.218047,467.222595 3.862665,465.177612 
	C4.617811,463.996399 4.953409,463.371613 4.955126,462.745911 
	C4.991872,449.360199 5.019027,435.974213 4.950530,422.588806 
	C4.944344,421.380005 4.274466,420.174622 3.912803,418.967651 
	C3.753388,414.219849 3.593975,409.472046 3.947667,404.079956 
	C4.272539,396.522980 4.084306,389.610229 3.896074,382.697510 
	C3.896074,382.697510 3.868213,382.475922 4.011893,381.903809 
	C4.046728,347.231354 3.937884,313.131012 3.899140,278.564392 
	C3.924630,254.075562 3.880021,230.052963 3.900030,205.563751 
	C4.002727,149.721100 4.046302,94.345085 4.036066,38.969078 
	C4.035878,37.951031 3.394926,36.933102 3.052948,35.915115 
	C4.758111,18.653700 17.469007,5.802798 35.730087,4.843749 
	C43.266006,4.447971 50.781330,3.660065 58.704369,3.073101 
M19.495619,369.859558 
	C19.205647,370.233154 18.663296,370.605957 18.662138,370.980469 
	C18.618921,384.933411 18.625694,398.886505 18.625694,413.289764 
	C82.090843,421.231995 145.271103,429.138580 208.358093,437.033478 
	C208.358093,446.872223 208.358093,456.111053 208.358093,465.821533 
	C144.918701,465.821533 81.837685,465.821533 18.477417,465.821533 
	C18.477417,475.707642 18.477417,485.114532 18.477417,494.807770 
	C92.238564,494.807770 165.791290,494.807770 239.487961,494.807770 
	C239.487961,466.882172 239.487961,439.171326 239.487961,411.379883 
	C222.813538,409.266693 206.499893,407.199249 190.147369,405.126862 
	C190.147369,395.847900 190.147369,386.962463 190.147369,377.984863 
	C206.802307,375.872772 223.113770,373.804291 239.608597,371.712524 
	C239.608597,361.784760 239.608597,352.194061 239.608597,342.217987 
	C227.943695,343.674103 216.579269,345.092346 205.214951,346.511322 
	C169.196304,351.008636 133.176453,355.496460 97.159470,360.007050 
	C71.551216,363.214142 45.946846,366.452118 19.495619,369.859558 
M194.500000,309.015533 
	C209.452515,309.015533 224.405029,309.015533 239.110840,309.015533 
	C239.110840,290.428772 239.395737,272.321503 238.948059,254.232346 
	C238.801880,248.325958 235.285995,243.310867 230.774124,239.253464 
	C223.922516,233.091949 215.586914,229.918945 206.745499,229.249268 
	C192.489502,228.169525 178.152664,227.875122 163.847427,227.810715 
	C150.648941,227.751282 137.908051,229.660004 128.896347,241.389923 
	C123.258171,233.402802 115.410706,229.679138 106.576378,228.998779 
	C93.984741,228.029099 81.289848,227.478668 68.682327,227.937653 
	C59.135567,228.285217 49.400002,229.559692 40.209190,232.093109 
	C27.442005,235.612366 19.267824,244.250992 18.552454,258.197083 
	C18.100626,267.005402 18.208336,275.844269 18.142725,284.670013 
	C18.083616,292.621307 18.130257,300.573364 18.130257,309.015533 
	C76.939926,309.015533 135.219955,309.015533 194.500000,309.015533 
M229.496948,157.977417 
	C232.850510,157.163330 236.204056,156.349243 239.475128,155.555176 
	C239.475128,145.470367 239.475128,135.772644 239.475128,125.728882 
	C237.928711,126.054611 236.796387,126.242020 235.691483,126.533363 
	C209.480164,133.444717 183.278290,140.392136 157.046631,147.225281 
	C155.483139,147.632568 152.925659,147.841812 152.111786,146.960373 
	C141.719788,135.705261 128.105347,133.213577 113.860817,132.827118 
	C98.706245,132.416000 83.535477,132.380066 68.374870,132.518433 
	C62.071293,132.575943 55.692585,133.037384 49.491642,134.130081 
	C28.484968,137.831772 18.263361,150.178329 18.201982,171.363403 
	C18.168665,182.862579 18.184084,194.361954 18.202301,205.861191 
	C18.204836,207.462036 18.349806,209.062637 18.420462,210.493652 
	C92.533203,210.493652 166.081711,210.493652 239.591736,210.493652 
	C239.591736,200.785690 239.591736,191.509750 239.591736,181.589066 
	C212.621490,181.589066 185.916092,181.589066 159.122711,181.589066 
	C159.122711,178.819244 159.122711,176.704163 159.122711,174.330505 
	C182.408768,168.898911 205.540161,163.503372 229.496948,157.977417 
M119.500000,32.999546 
	C85.893936,32.999546 52.287876,32.999546 18.496586,32.999546 
	C18.496586,42.949696 18.496586,52.352642 18.496586,62.418800 
	C81.819275,62.418800 144.843521,62.418800 207.853699,62.418800 
	C207.853699,70.501968 207.853699,77.914436 207.853699,85.805679 
	C144.590469,85.805679 81.680565,85.805679 18.535603,85.805679 
	C18.535603,95.853104 18.535603,105.409424 18.535603,115.404961 
	C20.846310,115.404961 22.822336,115.404961 24.798365,115.404961 
	C55.460445,115.404968 86.122620,115.451759 116.784576,115.390327 
	C141.778671,115.340256 166.793961,115.712914 191.754974,114.743141 
	C200.651520,114.397499 209.865936,111.723953 218.141769,108.232307 
	C232.664764,102.104919 239.865204,90.377762 239.997864,74.333344 
	C240.131409,58.180954 232.503937,47.171364 218.409744,40.152996 
	C208.207306,35.072575 197.240967,33.170692 185.989670,33.081482 
	C164.160934,32.908398 142.330017,33.011108 119.500000,32.999546 
z"/>
<path fill="#A17235" opacity="1.000000" stroke="none" 
	d="
M255.383255,390.847412 
	C254.759308,389.652802 254.269318,388.211578 254.267563,386.769775 
	C254.214874,343.694672 254.208191,300.619568 254.213181,257.544434 
	C254.213287,256.559052 254.431900,255.573685 254.785629,254.242798 
	C255.359863,255.091080 255.990601,256.284515 255.991898,257.478699 
	C256.039673,301.198334 256.030212,344.918030 256.014618,388.637726 
	C256.014374,389.292023 255.838654,389.946259 255.383255,390.847412 
z"/>
<path fill="#9B7240" opacity="1.000000" stroke="none" 
	d="
M2.878457,36.364712 
	C3.394926,36.933102 4.035878,37.951031 4.036066,38.969078 
	C4.046302,94.345085 4.002727,149.721100 3.681280,205.556854 
	C3.397912,206.016602 2.960807,205.989975 2.960807,205.989975 
	C2.870992,204.999649 2.702742,204.009338 2.702591,203.018997 
	C2.694160,147.617432 2.699765,92.215874 2.878457,36.364712 
z"/>
<path fill="#55432F" opacity="1.000000" stroke="none" 
	d="
M254.118317,166.139069 
	C253.802338,139.688370 253.486359,113.237679 253.488144,86.345886 
	C254.150314,85.921753 254.494736,85.938705 254.839142,85.955666 
	C254.873276,109.480858 254.906326,133.006058 254.942963,156.531250 
	C254.947342,159.347839 254.971130,162.164383 254.796844,165.517365 
	C254.607742,166.053787 254.118301,166.139069 254.118317,166.139069 
z"/>
<path fill="#47392F" opacity="1.000000" stroke="none" 
	d="
M254.422211,472.834717 
	C253.756622,471.441193 253.046738,469.722107 253.038467,467.999695 
	C252.961487,451.988770 252.948456,435.976776 253.074921,419.966370 
	C253.094009,417.551514 253.927109,415.143036 254.592117,412.439636 
	C254.768158,432.267609 254.735748,452.387634 254.422211,472.834717 
z"/>
<path fill="#C58D44" opacity="1.000000" stroke="none" 
	d="
M3.829039,279.030640 
	C3.937884,313.131012 4.046728,347.231354 4.080648,381.815796 
	C3.570440,380.813904 2.757287,379.328339 2.755428,377.841827 
	C2.714592,345.200470 2.763734,312.558960 3.095974,279.469421 
	C3.396282,279.021332 3.829039,279.030640 3.829039,279.030640 
z"/>
<path fill="#74532E" opacity="1.000000" stroke="none" 
	d="
M254.877487,85.491592 
	C254.494736,85.938705 254.150314,85.921753 253.554016,85.871292 
	C253.248901,71.235611 253.195679,56.633434 253.437958,41.542088 
	C254.117325,41.045975 254.501190,41.039036 254.885040,41.032093 
	C254.895309,55.697231 254.905563,70.362373 254.877487,85.491592 
z"/>
<path fill="#B07E41" opacity="1.000000" stroke="none" 
	d="
M3.899140,278.564392 
	C3.829039,279.030640 3.396282,279.021332 3.180351,279.006622 
	C2.910372,254.967255 2.856325,230.942581 2.881542,206.453949 
	C2.960807,205.989975 3.397912,206.016602 3.616662,206.023499 
	C3.880021,230.052963 3.924630,254.075562 3.899140,278.564392 
z"/>
<path fill="#876331" opacity="1.000000" stroke="none" 
	d="
M205.762253,650.223022 
	C205.617737,639.397766 205.498703,628.130676 205.575958,616.574707 
	C205.777405,627.450867 205.782562,638.616089 205.762253,650.223022 
z"/>
<path fill="#966F3E" opacity="1.000000" stroke="none" 
	d="
M3.860648,419.436523 
	C4.274466,420.174622 4.944344,421.380005 4.950530,422.588806 
	C5.019027,435.974213 4.991872,449.360199 4.955126,462.745911 
	C4.953409,463.371613 4.617811,463.996399 4.049964,464.838074 
	C3.710980,450.004822 3.759735,434.955109 3.860648,419.436523 
z"/>
<path fill="#B28244" opacity="1.000000" stroke="none" 
	d="
M115.246849,926.399658 
	C125.848488,926.090027 136.659180,926.157776 147.705597,926.579224 
	C137.112839,926.880920 126.284370,926.828979 115.246849,926.399658 
z"/>
<path fill="#9E7338" opacity="1.000000" stroke="none" 
	d="
M254.081024,166.587906 
	C254.118301,166.139069 254.607742,166.053787 254.844147,165.977829 
	C255.293762,170.153229 255.506958,174.404602 255.373108,178.923721 
	C254.698624,175.139908 254.371201,171.088318 254.081024,166.587906 
z"/>
<path fill="#5A4837" opacity="1.000000" stroke="none" 
	d="
M3.867577,383.196106 
	C4.084306,389.610229 4.272539,396.522980 4.147990,403.726654 
	C3.836498,397.243286 3.837789,390.468994 3.867577,383.196106 
z"/>
<path fill="#7F5F34" opacity="1.000000" stroke="none" 
	d="
M215.331085,571.976257 
	C216.118835,569.478943 217.203369,566.779663 218.626007,564.021851 
	C217.852020,566.567017 216.739929,569.170654 215.331085,571.976257 
z"/>
<path fill="#7F5F34" opacity="1.000000" stroke="none" 
	d="
M220.289368,561.102173 
	C220.772781,559.574036 221.560715,557.857483 222.702118,556.073242 
	C222.235001,557.641541 221.414444,559.277649 220.289368,561.102173 
z"/>
<path fill="#55432F" opacity="1.000000" stroke="none" 
	d="
M254.927673,40.687424 
	C254.501190,41.039036 254.117325,41.045975 253.448944,41.080528 
	C253.313141,40.191254 253.461868,39.274372 253.861908,38.104153 
	C254.398926,38.681458 254.684631,39.512104 254.927673,40.687424 
z"/>
<path fill="#7F5F34" opacity="1.000000" stroke="none" 
	d="
M226.272491,551.155884 
	C226.454178,550.323730 226.918152,549.282959 227.721573,548.111084 
	C227.558945,548.969116 227.056870,549.958191 226.272491,551.155884 
z"/>
<path fill="#7F5F34" opacity="1.000000" stroke="none" 
	d="
M229.322388,546.902527 
	C229.176102,546.262085 229.327026,545.474854 229.629791,544.423828 
	C229.727600,545.025208 229.673584,545.890503 229.322388,546.902527 
z"/>
<path fill="#7F5F34" opacity="1.000000" stroke="none" 
	d="
M224.277176,554.166687 
	C224.424561,553.551208 224.849945,552.752319 225.643982,551.914062 
	C225.526810,552.577515 225.041000,553.280396 224.277176,554.166687 
z"/>
<path fill="#7F5F34" opacity="1.000000" stroke="none" 
	d="
M228.226929,547.967834 
	C228.162994,547.761169 228.350250,547.460815 228.795258,547.079712 
	C228.861389,547.290649 228.669769,547.582397 228.226929,547.967834 
z"/>
<path fill="#7F5F34" opacity="1.000000" stroke="none" 
	d="
M223.285507,555.989929 
	C223.155319,555.723999 223.300888,555.394287 223.728912,555.004517 
	C223.861328,555.271729 223.711288,555.598938 223.285507,555.989929 
z"/>
<path fill="#7F5F34" opacity="1.000000" stroke="none" 
	d="
M219.239624,563.148926 
	C219.131699,562.940796 219.278976,562.573181 219.696228,562.070251 
	C219.809067,562.286438 219.651947,562.637939 219.239624,563.148926 
z"/>
<path fill="#F0F0F0" opacity="1.000000" stroke="none" 
	d="
M19.918180,369.767944 
	C45.946846,366.452118 71.551216,363.214142 97.159470,360.007050 
	C133.176453,355.496460 169.196304,351.008636 205.214951,346.511322 
	C216.579269,345.092346 227.943695,343.674103 239.608597,342.217987 
	C239.608597,352.194061 239.608597,361.784760 239.608597,371.712524 
	C223.113770,373.804291 206.802307,375.872772 190.147369,377.984863 
	C190.147369,386.962463 190.147369,395.847900 190.147369,405.126862 
	C206.499893,407.199249 222.813538,409.266693 239.487961,411.379883 
	C239.487961,439.171326 239.487961,466.882172 239.487961,494.807770 
	C165.791290,494.807770 92.238564,494.807770 18.477417,494.807770 
	C18.477417,485.114532 18.477417,475.707642 18.477417,465.821533 
	C81.837685,465.821533 144.918701,465.821533 208.358093,465.821533 
	C208.358093,456.111053 208.358093,446.872223 208.358093,437.033478 
	C145.271103,429.138580 82.090843,421.231995 18.625694,413.289764 
	C18.625694,398.886505 18.618921,384.933411 18.662138,370.980469 
	C18.663296,370.605957 19.205647,370.233154 19.918180,369.767944 
M131.569580,397.921173 
	C140.430725,398.987885 149.291870,400.054626 158.377808,401.148407 
	C158.377808,394.490845 158.377808,388.413696 158.377808,381.902954 
	C133.325302,385.029663 108.607399,388.114594 83.889503,391.199554 
	C83.882568,391.412170 83.875633,391.624817 83.868698,391.837433 
	C99.471756,393.837402 115.074806,395.837372 131.569580,397.921173 
z"/>
<path fill="#F0F0F0" opacity="1.000000" stroke="none" 
	d="
M194.000000,309.015533 
	C135.219955,309.015533 76.939926,309.015533 18.130257,309.015533 
	C18.130257,300.573364 18.083616,292.621307 18.142725,284.670013 
	C18.208336,275.844269 18.100626,267.005402 18.552454,258.197083 
	C19.267824,244.250992 27.442005,235.612366 40.209190,232.093109 
	C49.400002,229.559692 59.135567,228.285217 68.682327,227.937653 
	C81.289848,227.478668 93.984741,228.029099 106.576378,228.998779 
	C115.410706,229.679138 123.258171,233.402802 128.896347,241.389923 
	C137.908051,229.660004 150.648941,227.751282 163.847427,227.810715 
	C178.152664,227.875122 192.489502,228.169525 206.745499,229.249268 
	C215.586914,229.918945 223.922516,233.091949 230.774124,239.253464 
	C235.285995,243.310867 238.801880,248.325958 238.948059,254.232346 
	C239.395737,272.321503 239.110840,290.428772 239.110840,309.015533 
	C224.405029,309.015533 209.452515,309.015533 194.000000,309.015533 
M194.490845,256.999695 
	C178.057999,256.999695 161.625168,256.999695 145.035477,256.999695 
	C145.035477,264.835632 145.035477,272.210297 145.035477,279.738281 
	C166.214935,279.738281 187.105759,279.738281 208.239182,279.738281 
	C208.239182,272.099884 208.239182,264.699493 208.239182,256.999695 
	C203.782059,256.999695 199.633591,256.999695 194.490845,256.999695 
M71.500107,257.002655 
	C64.258675,257.002655 57.017246,257.002655 49.906010,257.002655 
	C49.906010,265.035828 49.906010,272.298767 49.906010,279.649750 
	C71.109238,279.649750 92.010391,279.649750 113.078812,279.649750 
	C113.078812,272.061340 113.078812,264.800140 113.078812,257.002655 
	C99.406487,257.002655 85.953262,257.002655 71.500107,257.002655 
z"/>
<path fill="#EFEFEF" opacity="1.000000" stroke="none" 
	d="
M229.084244,158.042633 
	C205.540161,163.503372 182.408768,168.898911 159.122711,174.330505 
	C159.122711,176.704163 159.122711,178.819244 159.122711,181.589066 
	C185.916092,181.589066 212.621490,181.589066 239.591736,181.589066 
	C239.591736,191.509750 239.591736,200.785690 239.591736,210.493652 
	C166.081711,210.493652 92.533203,210.493652 18.420462,210.493652 
	C18.349806,209.062637 18.204836,207.462036 18.202301,205.861191 
	C18.184084,194.361954 18.168665,182.862579 18.201982,171.363403 
	C18.263361,150.178329 28.484968,137.831772 49.491642,134.130081 
	C55.692585,133.037384 62.071293,132.575943 68.374870,132.518433 
	C83.535477,132.380066 98.706245,132.416000 113.860817,132.827118 
	C128.105347,133.213577 141.719788,135.705261 152.111786,146.960373 
	C152.925659,147.841812 155.483139,147.632568 157.046631,147.225281 
	C183.278290,140.392136 209.480164,133.444717 235.691483,126.533363 
	C236.796387,126.242020 237.928711,126.054611 239.475128,125.728882 
	C239.475128,135.772644 239.475128,145.470367 239.475128,155.555176 
	C236.204056,156.349243 232.850510,157.163330 229.084244,158.042633 
M70.500237,181.724960 
	C89.564629,181.724960 108.629021,181.724960 127.822884,181.724960 
	C127.822884,174.775635 127.822884,168.532410 127.822884,162.047638 
	C101.571091,162.047638 75.590439,162.047638 49.618774,162.047638 
	C49.618774,168.761337 49.618774,175.109695 49.618774,181.724945 
	C56.555393,181.724945 63.027985,181.724945 70.500237,181.724960 
z"/>
<path fill="#F0F0F0" opacity="1.000000" stroke="none" 
	d="
M120.000000,32.999546 
	C142.330017,33.011108 164.160934,32.908398 185.989670,33.081482 
	C197.240967,33.170692 208.207306,35.072575 218.409744,40.152996 
	C232.503937,47.171364 240.131409,58.180954 239.997864,74.333344 
	C239.865204,90.377762 232.664764,102.104919 218.141769,108.232307 
	C209.865936,111.723953 200.651520,114.397499 191.754974,114.743141 
	C166.793961,115.712914 141.778671,115.340256 116.784576,115.390327 
	C86.122620,115.451759 55.460445,115.404968 24.798365,115.404961 
	C22.822336,115.404961 20.846310,115.404961 18.535603,115.404961 
	C18.535603,105.409424 18.535603,95.853104 18.535603,85.805679 
	C81.680565,85.805679 144.590469,85.805679 207.853699,85.805679 
	C207.853699,77.914436 207.853699,70.501968 207.853699,62.418800 
	C144.843521,62.418800 81.819275,62.418800 18.496586,62.418800 
	C18.496586,52.352642 18.496586,42.949696 18.496586,32.999546 
	C52.287876,32.999546 85.893936,32.999546 120.000000,32.999546 
z"/>
<path fill="#343337" opacity="1.000000" stroke="none" 
	d="
M131.123718,397.879242 
	C115.074806,395.837372 99.471756,393.837402 83.868698,391.837433 
	C83.875633,391.624817 83.882568,391.412170 83.889503,391.199554 
	C108.607399,388.114594 133.325302,385.029663 158.377808,381.902954 
	C158.377808,388.413696 158.377808,394.490845 158.377808,401.148407 
	C149.291870,400.054626 140.430725,398.987885 131.123718,397.879242 
z"/>
<path fill="#302E33" opacity="1.000000" stroke="none" 
	d="
M194.987976,256.999695 
	C199.633591,256.999695 203.782059,256.999695 208.239182,256.999695 
	C208.239182,264.699493 208.239182,272.099884 208.239182,279.738281 
	C187.105759,279.738281 166.214935,279.738281 145.035477,279.738281 
	C145.035477,272.210297 145.035477,264.835632 145.035477,256.999695 
	C161.625168,256.999695 178.057999,256.999695 194.987976,256.999695 
z"/>
<path fill="#2F2D32" opacity="1.000000" stroke="none" 
	d="
M72.000076,257.002655 
	C85.953262,257.002655 99.406487,257.002655 113.078812,257.002655 
	C113.078812,264.800140 113.078812,272.061340 113.078812,279.649750 
	C92.010391,279.649750 71.109238,279.649750 49.906010,279.649750 
	C49.906010,272.298767 49.906010,265.035828 49.906010,257.002655 
	C57.017246,257.002655 64.258675,257.002655 72.000076,257.002655 
z"/>
<path fill="#333136" opacity="1.000000" stroke="none" 
	d="
M70.000404,181.724945 
	C63.027985,181.724945 56.555393,181.724945 49.618774,181.724945 
	C49.618774,175.109695 49.618774,168.761337 49.618774,162.047638 
	C75.590439,162.047638 101.571091,162.047638 127.822884,162.047638 
	C127.822884,168.532410 127.822884,174.775635 127.822884,181.724960 
	C108.629021,181.724960 89.564629,181.724960 70.000404,181.724945 
z"/>
</svg>